<svg width="16.000000" height="16.014832" viewBox="0 0 16 16.0148" fill="none" xmlns="http://www.w3.org/2000/svg" xmlns:xlink="http://www.w3.org/1999/xlink">
    <defs/>
    <path id="Vector" d="M0 0.53C0 0.39 0.05 0.25 0.15 0.15C0.25 0.05 0.39 0 0.53 0L2.13 0C2.25 6.1e-5 2.36 0.03 2.46 0.11C2.55 0.18 2.62 0.28 2.65 0.4L3.08 2.13L15.46 2.13C15.54 2.13 15.62 2.15 15.69 2.18C15.76 2.21 15.82 2.26 15.87 2.32C15.92 2.38 15.96 2.45 15.98 2.53C16 2.61 16 2.69 15.99 2.76L14.39 11.3C14.36 11.43 14.3 11.54 14.2 11.62C14.11 11.7 13.99 11.74 13.86 11.74L4.26 11.74C4.14 11.74 4.02 11.7 3.92 11.62C3.83 11.54 3.76 11.43 3.74 11.3L2.14 2.78L1.71 1.06L0.53 1.06C0.39 1.06 0.25 1.01 0.15 0.91C0.05 0.81 0 0.67 0 0.53ZM3.3 3.2L4.7 10.67L13.42 10.67L14.82 3.2L3.3 3.2ZM5.33 11.74C4.76 11.74 4.22 11.96 3.82 12.36C3.42 12.77 3.2 13.31 3.2 13.87C3.2 14.44 3.42 14.98 3.82 15.38C4.22 15.78 4.76 16.01 5.33 16.01C5.89 16.01 6.44 15.78 6.84 15.38C7.24 14.98 7.46 14.44 7.46 13.87C7.46 13.31 7.24 12.77 6.84 12.36C6.44 11.96 5.89 11.74 5.33 11.74ZM12.8 11.74C12.23 11.74 11.69 11.96 11.29 12.36C10.89 12.77 10.66 13.31 10.66 13.87C10.66 14.44 10.89 14.98 11.29 15.38C11.69 15.78 12.23 16.01 12.8 16.01C13.36 16.01 13.9 15.78 14.3 15.38C14.7 14.98 14.93 14.44 14.93 13.87C14.93 13.31 14.7 12.77 14.3 12.36C13.9 11.96 13.36 11.74 12.8 11.74ZM5.33 12.81C5.61 12.81 5.88 12.92 6.08 13.12C6.28 13.32 6.4 13.59 6.4 13.87C6.4 14.16 6.28 14.43 6.08 14.63C5.88 14.83 5.61 14.94 5.33 14.94C5.05 14.94 4.77 14.83 4.57 14.63C4.37 14.43 4.26 14.16 4.26 13.87C4.26 13.59 4.37 13.32 4.57 13.12C4.77 12.92 5.05 12.81 5.33 12.81ZM12.8 12.81C13.08 12.81 13.35 12.92 13.55 13.12C13.75 13.32 13.86 13.59 13.86 13.87C13.86 14.16 13.75 14.43 13.55 14.63C13.35 14.83 13.08 14.94 12.8 14.94C12.51 14.94 12.24 14.83 12.04 14.63C11.84 14.43 11.73 14.16 11.73 13.87C11.73 13.59 11.84 13.32 12.04 13.12C12.24 12.92 12.51 12.81 12.8 12.81Z" fill="#000000" fill-opacity="1.000000" fill-rule="nonzero"/>
</svg>
