<svg width="24.000000" height="24.000000" viewBox="0 0 24 24" fill="none" xmlns="http://www.w3.org/2000/svg"
     xmlns:xlink="http://www.w3.org/1999/xlink">
    <defs>
        <clipPath id="clip1_718">
            <rect id="carbon:location-filled" rx="0.000000" width="23.000000" height="23.000000"
                  transform="translate(0.500000 0.500000)" fill="white" fill-opacity="0"/>
        </clipPath>
    </defs>
    <rect id="carbon:location-filled" rx="0.000000" width="23.000000" height="23.000000"
          transform="translate(0.500000 0.500000)" fill="#FFFFFF" fill-opacity="0"/>
    <g clip-path="url(#clip1_718)">
        <path id="Vector"
              d="M12 1.5C9.81 1.5 7.71 2.37 6.16 3.91C4.62 5.46 3.75 7.56 3.75 9.75C3.74 11.53 4.33 13.27 5.41 14.7C5.41 14.7 5.63 14.99 5.67 15.03L12 22.5L18.32 15.03C18.36 14.99 18.58 14.7 18.58 14.7L18.58 14.69C19.66 13.27 20.25 11.53 20.25 9.75C20.24 7.56 19.37 5.46 17.83 3.91C16.28 2.37 14.18 1.5 12 1.5ZM12 12.75C11.4 12.75 10.82 12.57 10.33 12.24C9.83 11.91 9.45 11.44 9.22 10.89C9 10.34 8.94 9.74 9.05 9.16C9.17 8.58 9.45 8.04 9.87 7.62C10.29 7.2 10.83 6.92 11.41 6.8C11.99 6.69 12.59 6.75 13.14 6.97C13.69 7.2 14.16 7.58 14.49 8.08C14.82 8.57 15 9.15 15 9.75C14.99 10.54 14.68 11.3 14.12 11.87C13.55 12.43 12.79 12.74 12 12.75Z"
              fill="#FFFFFF" fill-opacity="1.000000" fill-rule="nonzero"/>
    </g>
</svg>
