<svg width="24.000000" height="24.000000" viewBox="0 0 24 24" fill="none" xmlns="http://www.w3.org/2000/svg" xmlns:xlink="http://www.w3.org/1999/xlink">

    <defs>
        <clipPath id="clip1_722">
            <rect id="bxs:phone-call" rx="0.000000" width="23.000000" height="23.000000" transform="translate(0.500000 0.500000)" fill="white" fill-opacity="0"/>
        </clipPath>
    </defs>
    <rect id="bxs:phone-call" rx="0.000000" width="23.000000" height="23.000000" transform="translate(0.500000 0.500000)" fill="#FFFFFF" fill-opacity="0"/>
    <g clip-path="url(#clip1_722)">
        <path id="Vector" d="M20 10.99L22 10.99C22 5.86 18.12 2 12.99 2L12.99 4C17.05 4 20 6.94 20 10.99Z" fill="#FFFFFF" fill-opacity="1.000000" fill-rule="nonzero"/>
        <path id="Vector" d="M13 8C15.1 8 16 8.89 16 11L18 11C18 7.77 16.22 6 13 6L13 8ZM16.42 13.44C16.22 13.26 15.97 13.17 15.71 13.18C15.45 13.19 15.21 13.29 15.03 13.48L12.63 15.94C12.06 15.83 10.9 15.47 9.71 14.28C8.52 13.09 8.15 11.93 8.05 11.36L10.51 8.96C10.69 8.78 10.8 8.53 10.81 8.28C10.82 8.02 10.72 7.76 10.55 7.57L6.85 3.51C6.68 3.32 6.44 3.2 6.18 3.18C5.92 3.17 5.66 3.25 5.46 3.42L3.29 5.28C3.12 5.46 3.02 5.69 3 5.93C2.99 6.18 2.7 12.1 7.29 16.7C11.3 20.7 16.32 21 17.7 21C17.9 21 18.03 20.99 18.06 20.99C18.3 20.97 18.53 20.87 18.71 20.7L20.57 18.53C20.74 18.33 20.82 18.07 20.81 17.81C20.79 17.55 20.67 17.31 20.48 17.13L16.42 13.44Z" fill="#FFFFFF" fill-opacity="1.000000" fill-rule="nonzero"/>
    </g>
</svg>
